# xmcd
#
# Track frame offsets:
#	150
#	22111
#	39365
#	53413
#	69887
#	85132
#	102949
#	113458
#	127890
#	144121
#	167717
#	184577
#	201432
#	216387
#
# Disc length: 3100 seconds
#
# Revision: 0
# Processed by: cddbd v1.5.2PL0 Copyright (c) Steve Scherf et al.
# Submitted via: EasyCDDAExtractor 12.0.4.1
#
DISCID=b30c1a0e
DTITLE=Swieta, swieta - CD_2
DYEAR=2004
DGENRE=
TTITLE0=Koleda dwoch serc
TTITLE1=Magia tych Swiat
TTITLE2=Swiat Wesolych!-zycze Wam
TTITLE3=Bardzo cicha noc
TTITLE4=Dzien jeden w roku
TTITLE5=Daj mi znak
TTITLE6=Na calej polaci snieg
TTITLE7=Z kopyta kulig rwie
TTITLE8=Biale Swieta
TTITLE9=Pada snieg
TTITLE10=Swiateczna muza
TTITLE11=Tam sie rodzi nowy Bog
TTITLE12=Happy X-mas-War is Over
TTITLE13=White Christmas
EXTD=
EXTT0=
EXTT1=
EXTT2=
EXTT3=
EXTT4=
EXTT5=
EXTT6=
EXTT7=
EXTT8=
EXTT9=
EXTT10=
EXTT11=
EXTT12=
EXTT13=
PLAYORDER=
